<?xml version="1.0" encoding="utf-8"?>
<!-- Generator: Adobe Illustrator 20.0.0, SVG Export Plug-In . SVG Version: 6.00 Build 0)  -->
<svg version="1.1" id="レイヤー_1" xmlns="http://www.w3.org/2000/svg" xmlns:xlink="http://www.w3.org/1999/xlink" x="0px"
	 y="0px" viewBox="0 0 841.9 595.3" style="enable-background:new 0 0 841.9 595.3;" xml:space="preserve">
<style type="text/css">
	.st0{fill:#9FA0A0;}
	.st1{fill:#C9CACA;}
</style>
<g>
	<path class="st0" d="M374.5,301.2L366,288v13.2h-4.2v-21.5h3.7l8.5,13.2v-13.2h4.2v21.5H374.5z"/>
	<path class="st0" d="M397.8,299c-1.5,1.5-3.4,2.4-5.8,2.4c-2.4,0-4.3-0.8-5.8-2.4c-2.2-2.2-2.1-4.9-2.1-8.6s-0.1-6.4,2.1-8.6
		c1.5-1.5,3.4-2.4,5.8-2.4c2.4,0,4.3,0.8,5.8,2.4c2.2,2.2,2.1,4.9,2.1,8.6S400,296.8,397.8,299z M394.7,284.4
		c-0.6-0.7-1.5-1.1-2.7-1.1s-2.1,0.5-2.7,1.1c-0.8,0.9-1,1.9-1,6s0.2,5.1,1,6c0.6,0.7,1.6,1.1,2.7,1.1s2.1-0.5,2.7-1.1
		c0.8-0.9,1.1-1.9,1.1-6S395.5,285.3,394.7,284.4z"/>
	<path class="st0" d="M414.3,301.2v-21.5h4.2v21.5H414.3z"/>
	<path class="st0" d="M440.3,301.2v-12.5l-4.1,8.2h-2.8l-4.1-8.2v12.5H425v-21.5h4.1l5.6,11.6l5.6-11.6h4.1v21.5H440.3z"/>
	<path class="st0" d="M463.2,301.2l-1.3-3.8h-7.6l-1.3,3.8h-4.4l7.8-21.5h3.3l7.8,21.5H463.2z M458.2,286l-2.7,7.8h5.3L458.2,286z"
		/>
	<path class="st0" d="M485,298.9c-1.7,1.8-3.8,2.4-6.1,2.4c-2.4,0-4.3-0.8-5.8-2.4c-2.2-2.2-2.1-4.9-2.1-8.6s-0.1-6.4,2.1-8.6
		c1.5-1.5,3.4-2.4,5.8-2.4c5,0,7.5,3.3,8.1,6.9h-4.2c-0.5-2-1.7-3.1-3.9-3.1c-1.1,0-2.1,0.5-2.7,1.1c-0.8,0.9-1,1.9-1,6
		s0.2,5.2,1,6.1c0.6,0.7,1.5,1.1,2.7,1.1c1.3,0,2.3-0.5,3-1.2c0.7-0.8,1-1.8,1-2.9v-0.8h-4v-3.5h8.1v3.1
		C487.1,295.5,486.5,297.3,485,298.9z"/>
	<path class="st0" d="M492.8,301.2v-21.5H507v3.7h-10v5h8.5v3.7H497v5.2h10v3.7H492.8z"/>
</g>
<g>
	<circle class="st1" cx="435.9" cy="224.6" r="13.4"/>
	<path class="st1" d="M481.4,198.3v52.7c0,3.7-3,6.7-6.7,6.7h-77.6c-3.7,0-6.7-3-6.7-6.7v-52.7c0-3.7,3-6.7,6.7-6.7h15.1
		c1.2-2.5,3.8-7.7,5.5-10c2.2-3.1,5.2-2.8,5.2-2.8h12.9h0.2h12.9c0,0,3.1-0.2,5.2,2.8c1.6,2.3,4.3,7.6,5.5,10h15.1
		C478.4,191.5,481.4,194.6,481.4,198.3z M435.9,203.1c-11.9,0-21.5,9.6-21.5,21.5c0,11.9,9.6,21.5,21.5,21.5
		c11.9,0,21.5-9.6,21.5-21.5C457.5,212.7,447.8,203.1,435.9,203.1z"/>
</g>
</svg>
